<svg width="730" height="375" viewBox="0 0 730 375" fill="none" xmlns="http://www.w3.org/2000/svg">
<path d="M511.409 209.7V233H219.591V209.7H234.182V130.972C216.585 121.568 205 105.551 205 87.375C205 77.7388 208.275 68.4578 214.239 60.5504L253.811 5.825C256.417 2.22049 261.234 0 266.447 0H464.553C469.765 0 474.583 2.22049 477.189 5.825L516.625 60.367C522.726 68.4578 526 77.7388 526 87.375C526 105.551 514.415 121.568 496.818 130.972V209.7H511.409ZM274.871 23.3L239.376 72.3839C235.992 76.8717 234.182 82.0032 234.182 87.375C234.182 103.46 250.513 116.5 270.659 116.5C285.702 116.5 299.034 109.164 304.536 98.2037C309.433 88.4495 326.726 88.4495 331.623 98.2037C337.125 109.164 350.457 116.5 365.5 116.5C380.543 116.5 393.875 109.164 399.377 98.2037C404.274 88.4495 421.567 88.4495 426.464 98.2037C431.966 109.164 445.298 116.5 460.341 116.5C480.487 116.5 496.818 103.46 496.818 87.375C496.818 82.0032 495.007 76.8717 491.488 72.2004L456.129 23.3H274.871Z" fill="#1B9FFF"/>
<path d="M101.762 260.465C104.496 260.629 106.793 260.766 108.652 260.875C110.566 260.93 112.152 260.984 113.41 261.039C114.832 261.094 116.035 261.094 117.02 261.039C118.004 260.984 119.344 260.848 121.039 260.629C122.461 260.465 124.348 260.219 126.699 259.891C129.105 259.508 132.086 259.016 135.641 258.414C134.383 259.672 133.398 260.82 132.688 261.859C132.031 262.844 131.512 263.691 131.129 264.402C130.691 265.277 130.391 266.016 130.227 266.617C130.117 267.164 130.227 268.531 130.555 270.719C130.883 272.906 131.348 275.504 131.949 278.512C132.551 281.465 133.207 284.637 133.918 288.027C134.629 291.363 135.34 294.508 136.051 297.461C136.762 300.359 137.391 302.848 137.938 304.926C138.539 306.949 138.977 308.152 139.25 308.535C140.07 309.684 140.59 310.449 140.809 310.832C141.027 311.16 141.41 311.461 141.957 311.734C142.176 311.844 142.531 312.008 143.023 312.227C143.461 312.445 144.035 312.719 144.746 313.047C145.512 313.375 146.469 313.758 147.617 314.195C145.484 314.305 143.652 314.387 142.121 314.441C140.59 314.441 139.332 314.469 138.348 314.523C137.199 314.578 136.215 314.633 135.395 314.688C134.574 314.688 133.59 314.742 132.441 314.852C131.457 314.961 130.172 315.07 128.586 315.18C127.055 315.289 125.25 315.398 123.172 315.508C124.266 314.742 125.141 314.059 125.797 313.457C126.508 312.801 127.055 312.254 127.438 311.816C127.875 311.27 128.176 310.777 128.34 310.34C128.449 309.848 128.531 309.109 128.586 308.125C128.641 307.25 128.641 306.102 128.586 304.68C128.531 303.203 128.395 301.289 128.176 298.938L106.602 301.152C106.055 302.082 105.645 302.902 105.371 303.613C105.098 304.27 104.906 304.844 104.797 305.336C104.633 305.938 104.578 306.43 104.633 306.812C104.742 307.25 104.934 307.77 105.207 308.371C105.48 308.918 105.863 309.574 106.355 310.34C106.902 311.051 107.695 311.898 108.734 312.883C107.367 312.828 105.973 312.801 104.551 312.801C103.129 312.801 101.816 312.828 100.613 312.883C99.1914 312.938 97.7969 312.992 96.4297 313.047C95.0625 313.102 93.5039 313.184 91.7539 313.293C90.2773 313.402 88.5547 313.539 86.5859 313.703C84.5625 313.812 82.4023 313.977 80.1055 314.195C81.5273 313.539 82.7305 312.883 83.7148 312.227C84.6992 311.516 85.5195 310.859 86.1758 310.258C86.9414 309.602 87.5977 308.973 88.1445 308.371C88.5273 307.824 89.293 306.566 90.4414 304.598C91.5898 302.574 92.875 300.195 94.2969 297.461C95.7734 294.727 97.3047 291.801 98.8906 288.684C100.531 285.566 102.008 282.641 103.32 279.906C104.633 277.117 105.699 274.711 106.52 272.688C107.34 270.664 107.75 269.352 107.75 268.75C107.641 268.039 107.367 267.246 106.93 266.371C106.547 265.605 105.945 264.73 105.125 263.746C104.359 262.762 103.238 261.668 101.762 260.465ZM127.191 292.867C126.863 290.953 126.562 289.312 126.289 287.945C126.016 286.523 125.797 285.348 125.633 284.418C125.414 283.324 125.25 282.367 125.141 281.547C124.977 280.781 124.785 279.797 124.566 278.594C124.348 277.555 124.074 276.27 123.746 274.738C123.473 273.152 123.117 271.266 122.68 269.078C119.562 275.312 117.129 280.152 115.379 283.598C113.684 286.988 112.453 289.477 111.688 291.062C110.758 292.922 110.238 294.016 110.129 294.344L127.191 292.867ZM152.293 306.977C154.262 306.703 155.793 307.031 156.887 307.961C158.035 308.891 158.582 310.176 158.527 311.816C158.473 312.637 158.309 313.293 158.035 313.785C157.762 314.277 157.379 314.66 156.887 314.934C156.449 315.152 155.902 315.344 155.246 315.508C154.645 315.617 153.934 315.727 153.113 315.836C152.293 316 151.5 315.973 150.734 315.754C149.969 315.48 149.285 315.098 148.684 314.605C148.082 314.113 147.59 313.566 147.207 312.965C146.879 312.363 146.715 311.762 146.715 311.16C146.715 310.504 146.879 309.957 147.207 309.52C147.59 309.027 148.055 308.617 148.602 308.289C149.203 307.906 149.805 307.633 150.406 307.469C151.062 307.25 151.691 307.086 152.293 306.977ZM220.871 256.773C224.371 256.719 227.242 257.348 229.484 258.66C231.781 259.973 233.641 261.531 235.062 263.336C236.484 265.141 237.578 266.973 238.344 268.832C239.109 270.637 239.711 272.059 240.148 273.098C240.258 273.371 240.477 273.727 240.805 274.164C241.078 274.547 241.461 275.012 241.953 275.559C242.5 276.051 243.184 276.625 244.004 277.281C242.309 277.336 240.805 277.391 239.492 277.445C238.18 277.445 237.059 277.473 236.129 277.527C235.09 277.582 234.16 277.637 233.34 277.691C232.52 277.746 231.508 277.828 230.305 277.938C229.211 278.047 227.871 278.156 226.285 278.266C224.699 278.375 222.758 278.539 220.461 278.758C221.828 277.117 222.895 275.668 223.66 274.41C224.48 273.098 225.082 271.949 225.465 270.965C225.902 269.926 226.148 269.023 226.203 268.258C226.312 267.492 226.285 266.836 226.121 266.289C225.793 265.031 224.945 264.129 223.578 263.582C219.641 262.488 216.195 263.363 213.242 266.207C210.344 268.996 208.266 273.59 207.008 279.988C206.406 283.16 205.832 286.469 205.285 289.914C204.793 293.305 204.602 296.422 204.711 299.266C204.82 302.055 205.367 304.324 206.352 306.074C207.336 307.824 209.031 308.645 211.438 308.535C213.789 308.426 215.785 308.043 217.426 307.387C219.066 306.676 220.379 305.855 221.363 304.926C222.348 303.941 223.031 302.902 223.414 301.809C223.852 300.66 224.016 299.594 223.906 298.609C223.688 297.844 223.113 297.023 222.184 296.148C221.363 295.383 220.133 294.535 218.492 293.605C216.852 292.621 214.5 291.609 211.438 290.57C214.336 290.406 216.715 290.297 218.574 290.242C220.488 290.133 221.992 290.023 223.086 289.914C224.398 289.805 225.41 289.723 226.121 289.668C226.777 289.613 227.734 289.559 228.992 289.504C230.086 289.449 231.48 289.422 233.176 289.422C234.926 289.422 237.113 289.395 239.738 289.34C238.754 290.324 237.988 291.227 237.441 292.047C237.168 292.484 236.922 292.867 236.703 293.195C236.484 293.742 236.402 294.863 236.457 296.559C236.457 297.98 236.566 300.086 236.785 302.875C237.004 305.609 237.414 309.355 238.016 314.113L227.105 315.59L227.598 304.516C226.34 307.523 224.754 309.766 222.84 311.242C220.98 312.719 219.203 313.758 217.508 314.359C215.484 315.07 213.379 315.398 211.191 315.344C208.348 315.07 205.504 314.414 202.66 313.375C199.816 312.336 197.301 310.75 195.113 308.617C192.926 306.43 191.23 303.613 190.027 300.168C188.879 296.723 188.523 292.457 188.961 287.371C189.453 282.285 190.656 277.855 192.57 274.082C194.539 270.254 196.973 267.082 199.871 264.566C202.77 262.051 206.023 260.164 209.633 258.906C213.297 257.594 217.043 256.883 220.871 256.773ZM244.414 278.266C245.836 278.539 247.066 278.758 248.105 278.922C249.199 279.031 250.129 279.141 250.895 279.25C251.77 279.359 252.535 279.441 253.191 279.496C253.848 279.551 254.613 279.605 255.488 279.66C256.965 279.715 259.043 279.715 261.723 279.66C260.137 279.551 258.879 279.961 257.949 280.891C257.074 281.766 256.418 282.777 255.98 283.926C255.434 285.293 255.133 286.879 255.078 288.684C254.969 291.09 255.023 293.277 255.242 295.246C255.516 297.16 255.98 298.801 256.637 300.168C257.348 301.48 258.277 302.465 259.426 303.121C260.574 303.723 262.051 303.887 263.855 303.613C265.66 303.34 267.027 302.711 267.957 301.727C268.941 300.688 269.652 299.43 270.09 297.953C270.527 296.422 270.773 294.699 270.828 292.785C270.938 290.871 271.02 288.875 271.074 286.797C271.074 284.719 271.047 283.242 270.992 282.367C270.992 281.438 270.965 280.836 270.91 280.562C270.855 280.289 270.773 280.18 270.664 280.234C270.555 280.234 270.418 280.098 270.254 279.824C270.145 279.605 269.98 279.387 269.762 279.168C269.598 278.949 269.379 278.703 269.105 278.43C268.832 278.102 268.531 277.773 268.203 277.445C269.625 277.5 270.883 277.555 271.977 277.609C273.125 277.609 274.082 277.637 274.848 277.691C275.723 277.746 276.488 277.801 277.145 277.855C277.746 277.91 278.539 277.992 279.523 278.102C280.344 278.211 281.41 278.32 282.723 278.43C284.035 278.539 285.594 278.703 287.398 278.922C286.141 279.195 285.129 279.605 284.363 280.152C283.598 280.699 282.996 281.246 282.559 281.793C282.066 282.395 281.711 283.051 281.492 283.762C281.328 284.691 281.328 286.113 281.492 288.027C281.602 289.723 281.875 292.047 282.312 295C282.75 297.953 283.434 301.836 284.363 306.648L277.883 310.504L276.57 299.594C274.984 302.273 273.289 304.352 271.484 305.828C269.734 307.25 268.094 308.289 266.562 308.945C264.758 309.711 263.008 310.148 261.312 310.258C259.07 310.258 257.129 310.121 255.488 309.848C253.902 309.52 252.535 309.109 251.387 308.617C250.238 308.125 249.309 307.578 248.598 306.977C247.941 306.32 247.449 305.664 247.121 305.008C246.355 303.641 245.945 301.891 245.891 299.758C245.836 297.57 245.918 295.41 246.137 293.277C246.355 291.09 246.602 289.094 246.875 287.289C247.148 285.484 247.23 284.254 247.121 283.598C247.012 283.105 246.848 282.559 246.629 281.957C246.41 281.465 246.137 280.918 245.809 280.316C245.48 279.66 245.016 278.977 244.414 278.266ZM286.168 277.773C287.918 277.5 289.34 277.281 290.434 277.117C291.582 276.898 292.512 276.734 293.223 276.625C294.043 276.461 294.672 276.324 295.109 276.215C295.547 276.105 296.176 275.941 296.996 275.723C297.707 275.504 298.637 275.258 299.785 274.984C300.934 274.656 302.383 274.219 304.133 273.672C303.695 274.219 303.34 274.711 303.066 275.148C302.848 275.531 302.629 275.859 302.41 276.133C302.191 276.461 302 276.762 301.836 277.035C301.672 277.309 301.508 277.719 301.344 278.266C301.234 278.703 301.098 279.332 300.934 280.152C300.77 280.918 300.633 281.93 300.523 283.188C303.477 281.328 306.184 279.934 308.645 279.004C311.16 278.074 313.348 277.418 315.207 277.035C317.395 276.598 319.363 276.434 321.113 276.543C323.301 276.707 325.324 277.199 327.184 278.02C329.098 278.785 330.82 279.715 332.352 280.809C333.883 281.902 335.223 283.105 336.371 284.418C337.52 285.73 338.422 287.043 339.078 288.355C339.516 289.23 339.789 290.488 339.898 292.129C340.062 293.77 339.898 295.52 339.406 297.379C338.914 299.238 338.039 301.07 336.781 302.875C335.578 304.625 333.855 306.02 331.613 307.059C327.73 308.809 323.875 309.793 320.047 310.012C318.406 310.121 316.711 310.066 314.961 309.848C313.266 309.629 311.543 309.164 309.793 308.453C308.098 307.742 306.457 306.73 304.871 305.418C303.285 304.051 301.836 302.301 300.523 300.168C300.086 302.957 299.758 305.391 299.539 307.469C299.375 309.492 299.266 311.188 299.211 312.555C299.156 314.141 299.156 315.48 299.211 316.574C299.32 317.668 299.539 318.844 299.867 320.102C300.141 321.195 300.523 322.453 301.016 323.875C301.562 325.352 302.246 326.883 303.066 328.469C302.738 328.359 302.273 328.277 301.672 328.223C301.125 328.223 300.551 328.277 299.949 328.387C299.293 328.496 298.555 328.605 297.734 328.715C296.969 328.879 296.121 329.07 295.191 329.289C294.426 329.453 293.523 329.645 292.484 329.863C291.5 330.137 290.488 330.438 289.449 330.766C290.051 330.055 290.516 329.234 290.844 328.305C291.227 327.43 291.527 326.609 291.746 325.844C291.965 324.914 292.156 323.984 292.32 323.055C292.375 322.234 292.457 320.676 292.566 318.379C292.73 316.137 292.867 313.539 292.977 310.586C293.086 307.578 293.168 304.434 293.223 301.152C293.332 297.871 293.387 294.836 293.387 292.047C293.441 289.203 293.441 286.797 293.387 284.828C293.332 282.859 293.223 281.711 293.059 281.383C292.84 281 292.43 280.59 291.828 280.152C291.336 279.77 290.625 279.387 289.695 279.004C288.82 278.621 287.645 278.211 286.168 277.773ZM305.691 292.703C305.309 293.961 305.227 295.191 305.445 296.395C305.664 297.598 306.211 298.719 307.086 299.758C308.016 300.797 309.301 301.727 310.941 302.547C312.637 303.312 314.742 303.887 317.258 304.27C319.773 304.652 321.688 304.598 323 304.105C324.312 303.613 325.27 302.848 325.871 301.809C326.527 300.715 326.965 299.457 327.184 298.035C327.402 296.559 327.676 295.027 328.004 293.441C328.332 291.91 328.277 290.352 327.84 288.766C327.402 287.125 326.773 285.648 325.953 284.336C325.188 283.023 324.312 281.957 323.328 281.137C322.398 280.262 321.578 279.824 320.867 279.824C319.172 279.824 317.504 280.262 315.863 281.137C314.223 282.012 312.719 283.105 311.352 284.418C309.984 285.73 308.781 287.152 307.742 288.684C306.758 290.16 306.074 291.5 305.691 292.703ZM342.277 264.32C343.918 264.484 345.285 264.621 346.379 264.73C347.527 264.84 348.457 264.922 349.168 264.977C349.988 265.031 350.645 265.059 351.137 265.059C351.629 265.113 352.285 265.113 353.105 265.059C353.816 265.004 354.746 264.949 355.895 264.895C357.043 264.785 358.492 264.621 360.242 264.402C359.859 264.949 359.559 265.441 359.34 265.879C359.121 266.262 358.93 266.617 358.766 266.945L358.273 267.93C358.164 268.258 358.055 268.586 357.945 268.914C357.836 269.188 357.727 269.516 357.617 269.898C357.562 270.281 357.508 270.691 357.453 271.129H370.086L368.938 277.773L357.371 277.117C357.098 279.906 356.906 282.066 356.797 283.598C356.688 285.129 356.578 286.25 356.469 286.961L356.305 288.438C356.141 290.516 355.977 292.785 355.812 295.246C355.648 297.652 355.594 299.895 355.648 301.973C355.703 304.051 355.895 305.801 356.223 307.223C356.551 308.59 357.125 309.273 357.945 309.273C358.766 309.273 359.531 309.055 360.242 308.617C360.953 308.18 361.555 307.66 362.047 307.059C362.594 306.457 363.004 305.855 363.277 305.254C363.551 304.598 363.688 304.105 363.688 303.777C363.688 303.449 363.605 303.066 363.441 302.629C363.168 301.809 362.676 300.77 361.965 299.512C363.551 299.895 364.945 300.277 366.148 300.66C366.75 300.879 367.297 301.098 367.789 301.316C368.336 301.535 368.965 301.781 369.676 302.055C370.277 302.328 371.043 302.656 371.973 303.039C372.902 303.422 373.996 303.887 375.254 304.434C374.051 304.652 373.176 305.008 372.629 305.5C372.301 305.719 372.055 305.965 371.891 306.238C371.508 306.84 371.07 307.66 370.578 308.699C370.086 309.684 369.348 310.668 368.363 311.652C367.379 312.637 366.039 313.512 364.344 314.277C362.703 315.043 360.488 315.48 357.699 315.59C354.801 315.699 352.586 315.207 351.055 314.113C349.578 313.02 348.484 311.762 347.773 310.34C347.117 308.863 346.734 307.414 346.625 305.992C346.516 304.57 346.434 303.613 346.379 303.121C346.324 302.629 346.324 301.398 346.379 299.43C346.434 297.461 346.516 295.301 346.625 292.949C346.734 290.543 346.844 288.246 346.953 286.059C347.062 283.816 347.117 282.176 347.117 281.137C347.117 280.59 347.145 280.016 347.199 279.414C347.199 278.922 347.199 278.402 347.199 277.855C347.254 277.254 347.281 276.68 347.281 276.133L335.387 276.051L334.895 271.375L346.871 271.703C346.762 271.102 346.625 270.555 346.461 270.062C346.352 269.516 346.242 269.078 346.133 268.75C345.969 268.367 345.805 268.039 345.641 267.766C345.422 267.492 345.176 267.191 344.902 266.863C344.629 266.59 344.273 266.234 343.836 265.797C343.398 265.359 342.879 264.867 342.277 264.32ZM378.043 282.777C378.316 282.449 378.48 281.848 378.535 280.973C378.645 280.043 378.863 279.004 379.191 277.855C379.574 276.707 380.203 275.504 381.078 274.246C381.953 272.988 383.375 271.812 385.344 270.719C387.258 269.625 389.117 268.969 390.922 268.75C392.727 268.531 394.449 268.613 396.09 268.996C397.73 269.379 399.262 269.98 400.684 270.801C402.16 271.621 403.5 272.523 404.703 273.508C405.523 274.164 406.18 275.121 406.672 276.379C407.164 277.582 407.547 278.949 407.82 280.48C408.094 282.012 408.285 283.625 408.395 285.32C408.559 286.961 408.668 288.574 408.723 290.16C408.777 291.691 408.805 293.113 408.805 294.426C408.859 295.684 408.969 296.723 409.133 297.543C409.352 298.746 409.734 299.785 410.281 300.66C410.828 301.48 411.43 302.191 412.086 302.793C412.742 303.34 413.398 303.777 414.055 304.105C414.711 304.434 415.285 304.68 415.777 304.844C416.105 305.008 416.406 305.117 416.68 305.172C417.227 305.391 417.609 305.391 417.828 305.172C417.5 305.938 417.199 306.594 416.926 307.141C416.652 307.688 416.434 308.152 416.27 308.535C416.051 308.973 415.859 309.328 415.695 309.602C415.531 309.93 415.34 310.23 415.121 310.504C414.957 310.777 414.738 311.078 414.465 311.406C414.191 311.734 413.918 312.09 413.645 312.473C412.934 312.199 412.25 311.871 411.594 311.488C410.992 311.105 410.445 310.75 409.953 310.422C409.352 310.039 408.805 309.656 408.312 309.273C407.82 308.891 407.355 308.453 406.918 307.961C406.535 307.523 406.125 307.059 405.688 306.566C405.305 306.074 404.977 305.527 404.703 304.926C404.375 305.637 403.582 306.648 402.324 307.961C401.121 309.273 399.535 310.477 397.566 311.57C395.598 312.609 393.301 313.348 390.676 313.785C388.105 314.223 385.262 313.922 382.145 312.883C380.777 312.445 379.492 311.816 378.289 310.996C377.086 310.121 376.047 309.082 375.172 307.879C374.352 306.676 373.75 305.309 373.367 303.777C373.039 302.191 373.066 300.441 373.449 298.527C373.832 296.613 374.516 295 375.5 293.688C376.484 292.375 377.66 291.309 379.027 290.488C380.395 289.668 381.926 289.039 383.621 288.602C385.316 288.164 387.066 287.863 388.871 287.699C390.293 287.645 391.715 287.727 393.137 287.945C394.34 288.164 395.598 288.574 396.91 289.176C398.223 289.723 399.344 290.57 400.273 291.719C400.219 288.82 400.109 286.523 399.945 284.828C399.836 283.078 399.727 281.738 399.617 280.809C399.398 279.715 399.207 278.949 399.043 278.512C398.77 278.129 398.469 277.691 398.141 277.199C397.867 276.707 397.512 276.27 397.074 275.887C396.637 275.449 396.09 275.094 395.434 274.82C394.777 274.547 394.012 274.438 393.137 274.492C392.207 274.547 391.469 274.793 390.922 275.23C390.375 275.668 389.938 276.188 389.609 276.789C389.336 277.336 389.172 277.938 389.117 278.594C389.062 279.25 389.09 279.824 389.199 280.316C389.309 280.645 389.473 281 389.691 281.383C389.91 281.711 390.211 282.066 390.594 282.449C390.977 282.832 391.496 283.16 392.152 283.434C390.895 283.598 389.773 283.734 388.789 283.844C387.805 283.898 386.957 283.98 386.246 284.09C385.426 284.199 384.715 284.281 384.113 284.336C383.512 284.391 382.801 284.5 381.98 284.664C381.27 284.773 380.395 284.91 379.355 285.074C378.316 285.238 377.113 285.457 375.746 285.73C376.074 285.348 376.375 284.992 376.648 284.664C376.922 284.281 377.168 283.953 377.387 283.68C377.605 283.352 377.824 283.051 378.043 282.777ZM390.348 292.539C389.363 292.594 388.379 292.84 387.395 293.277C386.41 293.66 385.535 294.234 384.77 295C384.004 295.711 383.348 296.559 382.801 297.543C382.309 298.473 382.062 299.512 382.062 300.66C382.062 301.809 382.336 302.82 382.883 303.695C383.484 304.516 384.25 305.199 385.18 305.746C386.164 306.293 387.203 306.621 388.297 306.73C389.445 306.84 390.566 306.73 391.66 306.402C392.699 306.02 393.684 305.418 394.613 304.598C395.543 303.723 396.336 302.793 396.992 301.809C397.648 300.77 398.113 299.758 398.387 298.773C398.66 297.734 398.688 296.887 398.469 296.23C398.031 294.809 397.047 293.824 395.516 293.277C393.984 292.676 392.262 292.43 390.348 292.539ZM495.84 255.953C495.074 257.703 494.391 259.234 493.789 260.547C493.188 261.859 492.668 262.98 492.23 263.91C491.738 264.949 491.328 265.879 491 266.699C490.727 267.301 490.371 268.121 489.934 269.16C489.496 270.09 488.949 271.32 488.293 272.852C487.691 274.328 486.898 276.242 485.914 278.594C485.422 276.57 484.82 274.793 484.109 273.262C483.398 271.73 482.633 270.391 481.812 269.242C480.992 268.094 480.117 267.164 479.188 266.453C478.312 265.688 477.438 265.059 476.562 264.566C474.539 263.473 472.406 262.871 470.164 262.762C467.211 262.926 464.887 263.418 463.191 264.238C461.551 265.004 460.348 265.906 459.582 266.945C458.816 267.93 458.406 268.969 458.352 270.062C458.297 271.102 458.434 271.977 458.762 272.688C459.035 273.344 459.992 274.109 461.633 274.984C463.328 275.859 465.352 276.871 467.703 278.02C470.109 279.113 472.68 280.371 475.414 281.793C478.148 283.16 480.664 284.691 482.961 286.387C485.312 288.027 487.281 289.832 488.867 291.801C490.508 293.715 491.41 295.766 491.574 297.953C491.738 300.742 491.711 303.258 491.492 305.5C491.273 307.742 490.508 309.656 489.195 311.242C487.883 312.828 485.832 314.086 483.043 315.016C480.309 315.945 476.508 316.52 471.641 316.738C466.609 316.957 462.48 316.684 459.254 315.918C456.027 315.152 453.402 314.113 451.379 312.801C449.41 311.488 447.934 310.039 446.949 308.453C446.02 306.867 445.336 305.363 444.898 303.941C444.461 302.465 444.16 301.207 443.996 300.168C443.832 299.074 443.559 298.418 443.176 298.199C442.738 297.926 442.301 297.68 441.863 297.461C441.48 297.242 441.07 297.051 440.633 296.887C440.195 296.668 439.758 296.477 439.32 296.312L463.191 292.457C461.824 293.551 460.758 294.562 459.992 295.492C459.281 296.422 458.734 297.242 458.352 297.953C457.914 298.773 457.613 299.539 457.449 300.25C457.34 301.016 457.586 301.973 458.188 303.121C458.789 304.27 459.609 305.391 460.648 306.484C461.742 307.523 463 308.398 464.422 309.109C465.844 309.82 467.32 310.121 468.852 310.012C470.766 309.848 472.324 309.383 473.527 308.617C474.73 307.797 475.633 306.785 476.234 305.582C476.891 304.379 477.273 303.066 477.383 301.645C477.492 300.223 477.355 298.828 476.973 297.461C476.645 296.039 476.098 294.727 475.332 293.523C474.566 292.266 473.664 291.227 472.625 290.406C471.695 289.75 470.246 289.121 468.277 288.52C466.363 287.918 464.203 287.262 461.797 286.551C459.445 285.84 457.012 285.02 454.496 284.09C452.035 283.16 449.793 282.012 447.77 280.645C445.801 279.277 444.215 277.664 443.012 275.805C441.863 273.945 441.426 271.703 441.699 269.078C441.918 266.836 442.629 264.977 443.832 263.5C445.09 261.969 446.648 260.766 448.508 259.891C450.422 258.961 452.527 258.277 454.824 257.84C457.176 257.402 459.555 257.156 461.961 257.102C464.422 256.992 466.828 257.02 469.18 257.184C471.586 257.348 473.746 257.539 475.66 257.758C477.574 257.977 479.188 258.195 480.5 258.414C481.867 258.578 482.715 258.688 483.043 258.742C484.465 258.852 485.887 258.824 487.309 258.66C488.566 258.551 489.934 258.305 491.41 257.922C492.941 257.484 494.418 256.828 495.84 255.953ZM496.25 253.82C497.508 254.039 498.656 254.203 499.695 254.312C500.734 254.367 501.609 254.422 502.32 254.477C503.141 254.531 503.852 254.559 504.453 254.559C505.273 254.504 506.23 254.422 507.324 254.312C508.254 254.203 509.375 254.066 510.688 253.902C512.055 253.738 513.613 253.52 515.363 253.246C514.543 253.684 513.859 254.121 513.312 254.559C512.766 254.941 512.328 255.352 512 255.789C511.617 256.281 511.316 256.746 511.098 257.184C510.824 257.895 510.523 259.371 510.195 261.613C509.867 263.527 509.457 266.371 508.965 270.145C508.527 273.918 507.953 279.031 507.242 285.484C509.211 283.516 511.07 282.039 512.82 281.055C514.625 280.016 516.211 279.277 517.578 278.84C519.164 278.348 520.641 278.102 522.008 278.102C523.703 278.266 525.426 278.812 527.176 279.742C528.98 280.617 530.648 281.656 532.18 282.859C533.766 284.062 535.133 285.348 536.281 286.715C537.484 288.082 538.332 289.285 538.824 290.324C539.152 291.035 539.316 291.965 539.316 293.113C539.316 294.207 539.207 295.41 538.988 296.723C538.77 298.035 538.469 299.375 538.086 300.742C537.703 302.109 537.32 303.395 536.938 304.598C536.609 305.801 536.309 306.867 536.035 307.797C535.762 308.672 535.598 309.301 535.543 309.684C535.434 310.504 535.488 311.297 535.707 312.062C535.871 312.719 536.199 313.43 536.691 314.195C537.184 314.906 537.922 315.508 538.906 316C538.141 315.891 537.32 315.809 536.445 315.754C535.625 315.645 534.832 315.562 534.066 315.508C533.191 315.453 532.316 315.426 531.441 315.426H528.488C527.559 315.426 526.492 315.453 525.289 315.508C524.086 315.508 522.773 315.535 521.352 315.59C522.117 315.316 522.773 314.961 523.32 314.523C523.867 314.031 524.332 313.566 524.715 313.129C525.152 312.637 525.535 312.117 525.863 311.57C526.082 311.133 526.355 310.312 526.684 309.109C527.012 307.852 527.312 306.43 527.586 304.844C527.859 303.203 528.051 301.48 528.16 299.676C528.324 297.871 528.352 296.148 528.242 294.508C528.188 292.812 527.941 291.309 527.504 289.996C527.121 288.684 526.52 287.727 525.699 287.125C523.238 285.266 520.996 284.363 518.973 284.418C517.004 284.418 515.117 285.211 513.312 286.797C512.656 287.398 512.027 288 511.426 288.602C510.879 289.148 510.277 289.805 509.621 290.57C508.965 291.281 508.363 292.02 507.816 292.785C507.816 293.605 507.844 294.508 507.898 295.492C507.953 296.477 508.008 297.434 508.062 298.363C508.117 299.402 508.199 300.441 508.309 301.48C508.418 303.066 508.582 304.625 508.801 306.156C508.965 307.469 509.184 308.918 509.457 310.504C509.73 312.035 510.086 313.43 510.523 314.688C509.812 314.578 509.074 314.551 508.309 314.605C507.543 314.605 506.805 314.605 506.094 314.605C505.273 314.66 504.48 314.688 503.715 314.688C503.004 314.742 502.266 314.824 501.5 314.934C500.844 315.043 500.133 315.152 499.367 315.262C498.602 315.316 497.863 315.426 497.152 315.59C497.809 314.332 498.355 313.102 498.793 311.898C499.23 310.641 499.586 309.547 499.859 308.617C500.188 307.523 500.461 306.457 500.68 305.418C500.844 304.598 500.953 303.039 501.008 300.742C501.117 298.391 501.199 295.711 501.254 292.703C501.309 289.641 501.336 286.414 501.336 283.023C501.336 279.633 501.309 276.406 501.254 273.344C501.199 270.281 501.09 267.602 500.926 265.305C500.816 263.008 500.68 261.422 500.516 260.547C500.297 259.672 499.996 258.797 499.613 257.922C499.285 257.156 498.848 256.418 498.301 255.707C497.754 254.941 497.07 254.312 496.25 253.82ZM565.402 279.25C566.824 279.25 568.301 279.523 569.832 280.07C571.363 280.562 572.84 281.219 574.262 282.039C575.684 282.805 576.969 283.652 578.117 284.582C579.32 285.457 580.305 286.305 581.07 287.125C582.438 288.602 583.367 290.598 583.859 293.113C584.406 295.574 584.516 298.117 584.188 300.742C583.859 303.312 583.094 305.746 581.891 308.043C580.688 310.34 579.02 312.035 576.887 313.129C575.355 313.895 573.852 314.496 572.375 314.934C570.898 315.371 569.477 315.699 568.109 315.918C566.742 316.137 565.457 316.246 564.254 316.246C563.051 316.246 562.012 316.219 561.137 316.164C559.496 316.055 557.773 315.48 555.969 314.441C554.219 313.402 552.551 312.117 550.965 310.586C549.434 309.055 548.121 307.387 547.027 305.582C545.934 303.723 545.277 301.973 545.059 300.332C544.73 298.09 544.676 295.738 544.895 293.277C545.113 290.816 545.906 288.547 547.273 286.469C548.695 284.391 550.828 282.668 553.672 281.301C556.57 279.934 560.48 279.25 565.402 279.25ZM562.695 311.078C563.297 311.188 564.117 311.051 565.156 310.668C566.195 310.23 567.207 309.547 568.191 308.617C569.23 307.688 570.133 306.512 570.898 305.09C571.719 303.613 572.211 301.836 572.375 299.758C572.539 297.734 572.539 295.875 572.375 294.18C572.266 292.484 572.02 291.008 571.637 289.75C571.254 288.438 570.816 287.371 570.324 286.551C569.832 285.73 569.312 285.156 568.766 284.828C567.836 284.336 566.715 283.953 565.402 283.68C564.09 283.352 562.969 283.406 562.039 283.844C561.602 284.062 561.055 284.527 560.398 285.238C559.742 285.949 559.086 286.852 558.43 287.945C557.773 288.984 557.172 290.188 556.625 291.555C556.133 292.922 555.777 294.344 555.559 295.82C555.34 297.297 555.285 298.883 555.395 300.578C555.559 302.273 555.914 303.887 556.461 305.418C557.008 306.895 557.773 308.18 558.758 309.273C559.797 310.312 561.109 310.914 562.695 311.078ZM585.664 277.773C587.414 277.5 588.836 277.281 589.93 277.117C591.078 276.898 592.008 276.734 592.719 276.625C593.539 276.461 594.168 276.324 594.605 276.215C595.043 276.105 595.672 275.941 596.492 275.723C597.203 275.504 598.133 275.258 599.281 274.984C600.43 274.656 601.879 274.219 603.629 273.672C603.191 274.219 602.836 274.711 602.562 275.148C602.344 275.531 602.125 275.859 601.906 276.133C601.688 276.461 601.496 276.762 601.332 277.035C601.168 277.309 601.004 277.719 600.84 278.266C600.73 278.703 600.594 279.332 600.43 280.152C600.266 280.918 600.129 281.93 600.02 283.188C602.973 281.328 605.68 279.934 608.141 279.004C610.656 278.074 612.844 277.418 614.703 277.035C616.891 276.598 618.859 276.434 620.609 276.543C622.797 276.707 624.82 277.199 626.68 278.02C628.594 278.785 630.316 279.715 631.848 280.809C633.379 281.902 634.719 283.105 635.867 284.418C637.016 285.73 637.918 287.043 638.574 288.355C639.012 289.23 639.285 290.488 639.395 292.129C639.559 293.77 639.395 295.52 638.902 297.379C638.41 299.238 637.535 301.07 636.277 302.875C635.074 304.625 633.352 306.02 631.109 307.059C627.227 308.809 623.371 309.793 619.543 310.012C617.902 310.121 616.207 310.066 614.457 309.848C612.762 309.629 611.039 309.164 609.289 308.453C607.594 307.742 605.953 306.73 604.367 305.418C602.781 304.051 601.332 302.301 600.02 300.168C599.582 302.957 599.254 305.391 599.035 307.469C598.871 309.492 598.762 311.188 598.707 312.555C598.652 314.141 598.652 315.48 598.707 316.574C598.816 317.668 599.035 318.844 599.363 320.102C599.637 321.195 600.02 322.453 600.512 323.875C601.059 325.352 601.742 326.883 602.562 328.469C602.234 328.359 601.77 328.277 601.168 328.223C600.621 328.223 600.047 328.277 599.445 328.387C598.789 328.496 598.051 328.605 597.23 328.715C596.465 328.879 595.617 329.07 594.688 329.289C593.922 329.453 593.02 329.645 591.98 329.863C590.996 330.137 589.984 330.438 588.945 330.766C589.547 330.055 590.012 329.234 590.34 328.305C590.723 327.43 591.023 326.609 591.242 325.844C591.461 324.914 591.652 323.984 591.816 323.055C591.871 322.234 591.953 320.676 592.062 318.379C592.227 316.137 592.363 313.539 592.473 310.586C592.582 307.578 592.664 304.434 592.719 301.152C592.828 297.871 592.883 294.836 592.883 292.047C592.938 289.203 592.938 286.797 592.883 284.828C592.828 282.859 592.719 281.711 592.555 281.383C592.336 281 591.926 280.59 591.324 280.152C590.832 279.77 590.121 279.387 589.191 279.004C588.316 278.621 587.141 278.211 585.664 277.773ZM605.188 292.703C604.805 293.961 604.723 295.191 604.941 296.395C605.16 297.598 605.707 298.719 606.582 299.758C607.512 300.797 608.797 301.727 610.438 302.547C612.133 303.312 614.238 303.887 616.754 304.27C619.27 304.652 621.184 304.598 622.496 304.105C623.809 303.613 624.766 302.848 625.367 301.809C626.023 300.715 626.461 299.457 626.68 298.035C626.898 296.559 627.172 295.027 627.5 293.441C627.828 291.91 627.773 290.352 627.336 288.766C626.898 287.125 626.27 285.648 625.449 284.336C624.684 283.023 623.809 281.957 622.824 281.137C621.895 280.262 621.074 279.824 620.363 279.824C618.668 279.824 617 280.262 615.359 281.137C613.719 282.012 612.215 283.105 610.848 284.418C609.48 285.73 608.277 287.152 607.238 288.684C606.254 290.16 605.57 291.5 605.188 292.703Z" fill="#1B9FFF"/>
</svg>
